<?xml version="1.0" encoding="UTF-8"?> <svg xmlns="http://www.w3.org/2000/svg" width="146" height="45" viewBox="0 0 146 45" fill="none"><g id="Logo Horizontal" clip-path="url(#clip0_205_915)"><path id="Vector" d="M67.2707 22.5621V24.017H58.3087V9.66949H67.0508V11.1244H59.7725V15.619H66.6574V17.0561H59.7725V22.568H67.2765L67.2707 22.5621Z" fill="#3A3A3A"></path><path id="Vector_2" d="M77.0369 22.5621V24.017H70.0594V9.66949H71.5926V22.5621H77.0369Z" fill="#3A3A3A"></path><path id="Vector_3" d="M88.5272 22.5621V24.017H79.5652V9.66949H88.3073V11.1244H81.029V15.619H87.9139V17.0561H81.029V22.568H88.533L88.5272 22.5621Z" fill="#3A3A3A"></path><path id="Vector_4" d="M105.873 24.0111L104.189 13.2238L99.1381 22.6922H98.762L93.6359 13.2061L91.9349 24.017H90.4017L92.7623 9.55713H93.0978L98.9356 20.2911L104.739 9.55713H105.057L107.417 24.017H105.884L105.873 24.0111Z" fill="#3A3A3A"></path><path id="Vector_5" d="M119.029 22.5621V24.017H110.067V9.66949H118.809V11.1244H111.531V15.619H118.416V17.0561H111.531V22.568H119.035L119.029 22.5621Z" fill="#3A3A3A"></path><path id="Vector_6" d="M133.754 9.66354V24.0879H133.435L123.328 12.9577V24.0169H121.812V9.57483H122.113L132.238 20.6518V9.66945H133.754V9.66354Z" fill="#3A3A3A"></path><path id="Vector_7" d="M139.852 11.1184H136.016V9.66357H145.221V11.1184H141.385V24.0111H139.852V11.1184Z" fill="#3A3A3A"></path><path id="Vector_8" d="M57.6318 44.1602V42.6462C58.2856 43.1252 59.4311 43.5806 60.7213 43.5806C63.0414 43.5806 64.1812 42.3564 64.1812 40.9193C64.1812 39.772 63.4869 38.873 62.1388 38.1633L60.4378 37.2821C58.8873 36.4778 57.8574 35.4488 57.8574 33.8579C57.8574 31.7348 59.7262 30.1675 62.648 30.1675C63.6952 30.1675 64.7077 30.4337 65.1532 30.7057V32.1961C64.6267 31.8885 63.62 31.581 62.6653 31.581C60.6461 31.581 59.4485 32.5391 59.4485 33.8579C59.4485 34.8515 60.1023 35.4665 61.2247 36.0579L62.9257 36.9391C64.7424 37.8558 65.697 39.1392 65.697 40.8601C65.697 43.0779 64.0886 44.9941 60.7734 44.9941C59.5006 44.9941 58.3029 44.6097 57.6318 44.1543V44.1602Z" fill="#3A3A3A"></path><path id="Vector_9" d="M79.0792 44.3731C78.2171 44.8344 77.1873 45.0059 76.1054 45.0059C71.986 45.0059 68.7865 41.7946 68.7865 37.566C68.7865 33.3375 71.986 30.1794 76.1227 30.1794C77.2104 30.1794 78.2171 30.3686 79.0792 30.7944V32.3262C78.2171 31.8649 77.2625 31.6579 76.1401 31.6579C72.8481 31.6579 70.3371 34.2009 70.3371 37.566C70.3371 40.9311 72.8423 43.5333 76.1401 43.5333C77.2625 43.5333 78.2171 43.3204 79.0792 42.865V44.379V44.3731Z" fill="#3A3A3A"></path><path id="Vector_10" d="M83.3606 30.3864H84.8764V44.7339H83.3606V30.3864Z" fill="#3A3A3A"></path><path id="Vector_11" d="M99.0802 43.279V44.7339H90.1182V30.3864H98.8603V31.8413H91.582V36.3359H98.4669V37.7731H91.582V43.285H99.086L99.0802 43.279Z" fill="#3A3A3A"></path><path id="Vector_12" d="M115.344 30.3864V44.8107H115.025L104.918 33.6805V44.7398H103.402V30.2977H103.703L113.828 41.3747V30.3923H115.344V30.3864Z" fill="#3A3A3A"></path><path id="Vector_13" d="M129.767 44.3731C128.905 44.8344 127.875 45.0059 126.793 45.0059C122.674 45.0059 119.475 41.7946 119.475 37.566C119.475 33.3375 122.674 30.1794 126.811 30.1794C127.899 30.1794 128.905 30.3686 129.767 30.7944V32.3262C128.905 31.8649 127.951 31.6579 126.828 31.6579C123.536 31.6579 121.025 34.2009 121.025 37.566C121.025 40.9311 123.53 43.5333 126.828 43.5333C127.951 43.5333 128.905 43.3204 129.767 42.865V44.379V44.3731Z" fill="#3A3A3A"></path><path id="Vector_14" d="M142.883 43.279V44.7339H133.921V30.3864H142.664V31.8413H135.385V36.3359H142.27V37.7731H135.385V43.285H142.889L142.883 43.279Z" fill="#3A3A3A"></path><path id="Vector_15" d="M51.8635 5.47641L46.4829 5.50007L46.4597 0L42.5197 0.0177421L42.5428 5.51781L37.1622 5.54146L37.1795 9.56302L42.5602 9.54528L42.5775 15.0453L46.5176 15.0276L46.5002 9.52753L51.8809 9.50388L51.8635 5.47641Z" fill="#3A3A3A"></path><path id="Vector_16" d="M9.48361 15.1163H30.6764V9.65173H8.74304C4.03931 9.65173 0.226562 13.5491 0.226562 18.3572V44.7398H30.6707V39.2752H5.41051V19.2798C5.41051 16.9792 7.23299 15.1163 9.48361 15.1163Z" fill="#3A3A3A"></path><path id="Vector_17" d="M25.1396 25.3121V29.8364H9.06125V24.561H24.4048C24.8156 24.561 25.1454 24.8981 25.1454 25.318" fill="#3A3A3A"></path></g><defs><clipPath id="clip0_205_915"><rect width="145" height="45" fill="white" transform="translate(0.226562)"></rect></clipPath></defs></svg> 