<?xml version="1.0" encoding="utf-8"?>
<!-- Generator: Adobe Illustrator 21.1.0, SVG Export Plug-In . SVG Version: 6.00 Build 0)  -->
<svg version="1.1" id="Layer_1" xmlns="http://www.w3.org/2000/svg" xmlns:xlink="http://www.w3.org/1999/xlink" x="0px" y="0px"
	 viewBox="0 0 423.1 792" enable-background="new 0 0 423.1 792" xml:space="preserve">
<g id="V_2_">
	<polygon fill="#5692CE" points="52.6,99.5 32.7,159.1 72.5,159.1 	"/>
	<polygon fill="#5692CE" points="92.3,99.5 72.5,159.1 112.2,159.1 	"/>
	<polygon fill="#5692CE" points="72.5,159.1 92.3,99.5 52.6,99.5 	"/>
	<polygon fill="#5692CE" points="32.7,159.1 52.6,99.5 12.8,99.5 	"/>
	<polygon fill="#5692CE" points="72.5,159.1 52.6,218.7 92.3,218.7 	"/>
	<polygon fill="#5692CE" points="112.2,159.1 92.3,218.7 132.1,218.7 	"/>
	<polygon fill="#5692CE" points="92.3,218.7 112.2,159.1 72.5,159.1 	"/>
	<polygon fill="#5692CE" points="52.6,218.7 72.5,159.1 32.7,159.1 	"/>
	<polygon fill="#3588C4" points="370.6,99.5 350.8,159.1 390.5,159.1 	"/>
	<polygon fill="#388DCC" points="390.5,159.1 410.4,99.5 370.6,99.5 	"/>
	<polygon fill="#3281BB" points="350.8,159.1 370.6,99.5 330.9,99.5 	"/>
	<polygon fill="#3281BB" points="370.6,218.7 390.5,159.1 350.8,159.1 	"/>
	<polygon fill="#5692CE" points="92.3,218.7 72.5,278.4 112.2,278.4 	"/>
	<polygon fill="#5692CE" points="132.1,218.7 112.2,278.4 152,278.4 	"/>
	<polygon fill="#5692CE" points="112.2,278.4 132.1,218.7 92.3,218.7 	"/>
	<polygon fill="#5692CE" points="72.5,278.4 92.3,218.7 52.6,218.7 	"/>
	<polygon fill="#5692CE" points="112.2,278.4 92.3,338 132.1,338 	"/>
	<polygon fill="#528DCA" points="152,278.4 132.1,338 171.9,338 	"/>
	<polygon fill="#5692CE" points="132.1,338 152,278.4 112.2,278.4 	"/>
	<polygon fill="#5692CE" points="92.3,338 112.2,278.4 72.5,278.4 	"/>
	<polygon fill="#528DCA" points="132.1,338 112.2,397.7 152,397.7 	"/>
	<polygon fill="#4986C6" points="171.9,338 152,397.7 191.7,397.7 	"/>
	<polygon fill="#4B88C7" points="152,397.7 171.9,338 132.1,338 	"/>
	<polygon fill="#5692CE" points="112.2,397.7 132.1,338 92.3,338 	"/>
	<polygon fill="#4986C6" points="152,397.7 132.1,457.3 171.9,457.3 	"/>
	<polygon fill="#3F7FC2" points="191.7,397.7 171.9,457.3 211.6,457.3 	"/>
	<polygon fill="#4484C4" points="171.9,457.3 191.7,397.7 152,397.7 	"/>
	<polygon fill="#4B88C7" points="132.1,457.3 152,397.7 112.2,397.7 	"/>
	<polygon fill="#27628B" points="271.2,278.4 251.4,338 291.1,338 	"/>
	<polygon fill="#23577A" points="251.4,338 231.5,397.7 271.2,397.7 	"/>
	<polygon fill="#286590" points="291.1,338 271.2,397.7 311,397.7 	"/>
	<polygon fill="#245D83" points="271.2,397.7 291.1,338 251.4,338 	"/>
	<polygon fill="#23577A" points="271.2,397.7 251.4,457.3 291.1,457.3 	"/>
	<polygon fill="#245D83" points="291.1,457.3 311,397.7 271.2,397.7 	"/>
	<polygon fill="#205173" points="251.4,457.3 271.2,397.7 231.5,397.7 	"/>
	<polygon fill="#1D4D6D" points="271.2,516.9 291.1,457.3 251.4,457.3 	"/>
	<polygon fill="#3F7FC2" points="171.9,457.3 152,516.9 191.7,516.9 	"/>
	<polygon fill="#3073BA" points="211.6,457.3 191.7,516.9 231.5,516.9 	"/>
	<polygon fill="#3477BC" points="191.7,516.9 211.6,457.3 171.9,457.3 	"/>
	<polygon fill="#4484C4" points="152,516.9 171.9,457.3 132.1,457.3 	"/>
	<polygon fill="#3073BA" points="191.7,516.9 171.9,576.6 211.6,576.6 	"/>
	<polygon fill="#226AB4" points="231.5,516.9 211.6,576.6 251.4,576.6 	"/>
	<polygon fill="#276EB6" points="211.6,576.6 231.5,516.9 191.7,516.9 	"/>
	<polygon fill="#17415C" points="231.5,397.7 211.6,457.3 251.4,457.3 	"/>
	<polygon fill="#17415C" points="251.4,457.3 231.5,516.9 271.2,516.9 	"/>
	<polygon fill="#173548" points="231.5,516.9 251.4,457.3 211.6,457.3 	"/>
	<polygon fill="#173548" points="251.4,576.6 271.2,516.9 231.5,516.9 	"/>
	<polygon fill="#317AB1" points="330.9,99.5 311,159.1 350.8,159.1 	"/>
	<polygon fill="#2A70A2" points="311,159.1 291.1,218.7 330.9,218.7 	"/>
	<polygon fill="#2E74A8" points="350.8,159.1 330.9,218.7 370.6,218.7 	"/>
	<polygon fill="#2E74A8" points="330.9,218.7 350.8,159.1 311,159.1 	"/>
	<polygon fill="#2A70A2" points="330.9,218.7 311,278.4 350.8,278.4 	"/>
	<polygon fill="#2E74A8" points="350.8,278.4 370.6,218.7 330.9,218.7 	"/>
	<polygon fill="#2A70A2" points="311,278.4 330.9,218.7 291.1,218.7 	"/>
	<polygon fill="#286B9A" points="330.9,338 350.8,278.4 311,278.4 	"/>
	<polygon fill="#296895" points="291.1,218.7 271.2,278.4 311,278.4 	"/>
	<polygon fill="#296895" points="311,278.4 291.1,338 330.9,338 	"/>
	<polygon fill="#286590" points="291.1,338 311,278.4 271.2,278.4 	"/>
	<polygon fill="#286590" points="311,397.7 330.9,338 291.1,338 	"/>
	<polygon fill="#3477BC" points="171.9,576.6 191.7,516.9 152,516.9 	"/>
	<polygon fill="#226AB4" points="211.6,576.6 191.7,636.2 231.5,636.2 	"/>
	<polygon fill="#1E61A4" points="231.5,636.2 251.4,576.6 211.6,576.6 	"/>
	<polygon fill="#276EB6" points="191.7,636.2 211.6,576.6 171.9,576.6 	"/>
	<polygon fill="#1E61A4" points="211.6,695.8 231.5,636.2 191.7,636.2 	"/>
</g>
</svg>
